<?xml version="1.0" encoding="UTF-8"?><svg id="Logo_Top" xmlns="http://www.w3.org/2000/svg" viewBox="0 0 500 500"><defs><style>.cls-1{fill:#ccc;}.cls-2{fill:#fff;}.cls-3{fill:#76cbff;}.cls-4{fill:#ffb55c;}</style></defs><polygon class="cls-2" points="130.35 457.43 10.44 249.73 130.35 42.03 370.19 42.03 490.11 249.73 370.19 457.43 130.35 457.43"/><path class="cls-1" d="M346.04,83.85l95.77,165.88-95.77,165.88h-191.54L58.73,249.73l95.77-165.88h191.54M358.11,62.94h-215.69l-6.04,10.46L40.62,239.27l-6.04,10.46,6.04,10.46,95.77,165.88,6.04,10.46h215.69l6.04-10.46,95.77-165.88,6.04-10.46-6.04-10.46-95.77-165.88-6.04-10.46h0Z"/><path class="cls-4" d="M283.91,83.85c48.65,52.61,59.79,132.73,22.08,198.04-31.12,53.9-87.58,84.02-145.64,84.02-12.3,0-24.69-1.35-36.91-4.12l-64.7-112.07,95.77-165.88h129.41M293.05,62.94h-150.62l-6.04,10.46L40.62,239.27l-6.04,10.46,6.04,10.46,64.7,112.07,4.57,7.92,8.92,2.02c13.59,3.08,27.56,4.64,41.53,4.64,32.6,0,64.83-8.47,93.21-24.5,29.26-16.53,53.66-40.72,70.54-69.98,10.37-17.96,17.67-37.29,21.7-57.46,3.89-19.5,4.67-39.44,2.3-59.26-2.34-19.58-7.69-38.6-15.9-56.53-8.33-18.18-19.41-34.81-32.94-49.44l-6.21-6.71h0Z"/><path class="cls-3" d="M319.49,229.94c17.38,0,35,4.43,51.13,13.74,21.24,12.26,36.42,30.98,44.51,52.25l-69.1,119.68h-86.46c-42.29-30.33-55.49-88.4-28.91-134.42,18.98-32.87,53.42-51.25,88.83-51.25M319.49,209.03c-21.28,0-42.33,5.53-60.86,16-19.12,10.8-35.05,26.6-46.08,45.7-15.4,26.68-20.26,57.94-13.69,88.02,6.53,29.87,23.77,56.1,48.52,73.85l5.46,3.92h105.26l6.04-10.46,69.1-119.68,4.97-8.61-3.53-9.29c-10.05-26.42-29.09-48.77-53.6-62.92-18.75-10.82-40.05-16.55-61.59-16.55h0Z"/><path class="cls-4" d="M328.51,198.85c-.07,13.96-1.87,28-5.5,41.79h21.54c.44-1.91.87-3.82,1.25-5.75,2.38-11.89,3.58-23.95,3.63-36.04h-20.92Z"/></svg>