<?xml version="1.0" encoding="UTF-8"?><svg id="Logo_Top" xmlns="http://www.w3.org/2000/svg" viewBox="0 0 500 500"><path d="M209.8,242.17c-7.86,0-12.94-4.11-16.51-10.18l6.87-5.53c3.39,5.36,6.34,6.96,10.18,6.96,4.73,0,7.5-2.86,7.5-7.95,0-4.82-2.05-7.59-10.45-13.12-7.05-4.64-12.59-9.19-12.59-19.01,0-9.11,6.07-15.62,15.8-15.62,7.23,0,11.43,3.04,15.18,8.48l-6.43,5.71c-3.03-4.02-5.09-5.44-9.02-5.44-4.2,0-6.52,2.68-6.52,6.61,0,4.64,2.14,7.23,9.1,11.7,7.77,5,13.93,9.82,13.93,20.26s-5.98,17.14-17.05,17.14Z"/><path d="M266.48,220.66h-24.55c.54,9.28,3.84,13.3,8.84,13.3,3.93,0,5.8-.98,8.48-3.48l5.27,5.45c-3.21,3.57-7.95,6.25-13.93,6.25-11.16,0-17.23-9.46-17.23-24.19,0-16.43,6.78-24.64,16.69-24.64,9.37,0,16.51,7.95,16.51,24.28,0,.8,0,2.14-.09,3.03ZM249.88,201.37c-4.37,0-7.14,3.84-7.86,11.87h15.8c-.27-6.96-3.12-11.87-7.95-11.87Z"/><path d="M279.87,187c-2.95,0-5.36-2.41-5.36-5.27s2.41-5.36,5.36-5.36,5.27,2.41,5.27,5.36-2.41,5.27-5.27,5.27ZM275.59,241.19v-46.87h8.57v46.87h-8.57Z"/><path d="M309.51,242.17c-9.73,0-16.34-7.77-16.34-24.19s6.25-24.64,16.69-24.64c6.78,0,10.53,3.66,13.21,8.21l-6.16,5.36c-2.41-3.84-4.28-5.36-7.32-5.36-5.44,0-7.77,5.98-7.77,16.25s2.41,16.16,8.04,16.16c2.86,0,4.82-1.52,7.14-5.18l6.16,5.09c-3.12,4.91-6.87,8.3-13.66,8.3Z"/><path d="M352.71,241.19v-28.84c0-7.77-1.52-10.89-5.8-10.89-2.68,0-5.27,1.52-6.96,4.28v35.44h-8.57v-60.61l8.57-4.46v21.43c1.87-2.41,5.09-4.2,9.1-4.2,9.02,0,12.23,5.8,12.23,17.59v30.26h-8.57Z"/><path d="M402.7,220.66h-24.55c.54,9.28,3.84,13.3,8.84,13.3,3.93,0,5.8-.98,8.48-3.48l5.27,5.45c-3.21,3.57-7.95,6.25-13.93,6.25-11.16,0-17.23-9.46-17.23-24.19,0-16.43,6.78-24.64,16.69-24.64,9.37,0,16.51,7.95,16.51,24.28,0,.8,0,2.14-.09,3.03ZM386.1,201.37c-4.38,0-7.14,3.84-7.86,11.87h15.8c-.27-6.96-3.12-11.87-7.94-11.87Z"/><path d="M223.19,327.62l-3.66-16.51h-13.57l-3.57,16.51h-9.28l15.35-62.49h9.02l15.27,62.49h-9.55ZM215.43,292.27c-.89-4.11-2.23-11.34-2.68-13.66-.45,2.32-1.78,9.46-2.68,13.66l-2.32,10.53h10l-2.32-10.53Z"/><path d="M253.72,328.6c-9.73,0-16.34-7.77-16.34-24.19s6.25-24.64,16.69-24.64c6.78,0,10.53,3.66,13.21,8.21l-6.16,5.36c-2.41-3.84-4.28-5.36-7.32-5.36-5.44,0-7.77,5.98-7.77,16.25s2.41,16.16,8.04,16.16c2.86,0,4.82-1.52,7.14-5.18l6.16,5.09c-3.12,4.91-6.87,8.3-13.66,8.3Z"/><path d="M289.6,328.6c-9.73,0-16.6-7.77-16.6-24.19s6.52-24.64,16.96-24.64,16.78,7.95,16.78,24.28-6.78,24.55-17.14,24.55ZM289.78,287.98c-5.36,0-8.12,5.53-8.12,16.25s2.86,16.16,8.21,16.16,8.21-6.43,8.21-16.16c0-10.62-2.95-16.25-8.3-16.25Z"/><path d="M336.38,327.62v-3.21c-1.87,2.41-5.09,4.2-9.11,4.2-9.02,0-12.23-5.8-12.23-17.59v-30.26h8.57v28.84c0,7.77,1.52,10.89,5.8,10.89,2.68,0,5.27-1.52,6.96-4.29v-35.44h8.57v46.87h-8.57Z"/><path d="M366.82,328.6c-5,0-10.27-1.96-14.37-5l3.3-7.14c4.29,2.68,7.77,4.02,10.89,4.02,3.84,0,6.16-2.05,6.16-5.09,0-3.3-2.5-5-9.02-8.75-5.8-3.39-9.73-6.43-9.73-13.84,0-8.12,4.91-13.03,13.39-13.03,4.73,0,9.28,1.7,12.76,4.37l-3.48,7.23c-3.03-2.14-6.52-3.48-9.46-3.48-3.21,0-4.64,1.78-4.64,4.11,0,2.86,1.34,4.29,7.68,7.95,7.05,4.11,11.07,7.14,11.07,14.82,0,8.93-5.44,13.84-14.55,13.84Z"/><path d="M407.88,326.46c-2.05,1.34-4.46,2.14-7.68,2.14-6.25,0-9.02-4.38-9.02-11.96v-27.85h-5.09v-8.04h5.09v-13.66l8.57-4.55v18.21h9.02v8.04h-9.02v27.05c0,3.3,1.25,4.64,3.57,4.64s4.29-.89,5.53-1.96l-.98,7.95Z"/><path d="M422.52,273.43c-2.95,0-5.36-2.41-5.36-5.27s2.41-5.36,5.36-5.36,5.27,2.41,5.27,5.36-2.41,5.27-5.27,5.27ZM418.23,327.62v-46.87h8.57v46.87h-8.57Z"/><path d="M452.15,328.6c-9.73,0-16.34-7.77-16.34-24.19s6.25-24.64,16.69-24.64c6.78,0,10.53,3.66,13.21,8.21l-6.16,5.36c-2.41-3.84-4.28-5.36-7.32-5.36-5.44,0-7.77,5.98-7.77,16.25s2.41,16.16,8.04,16.16c2.86,0,4.82-1.52,7.14-5.18l6.16,5.09c-3.12,4.91-6.87,8.3-13.66,8.3Z"/><path d="M485.45,328.6c-5,0-10.27-1.96-14.37-5l3.3-7.14c4.29,2.68,7.77,4.02,10.89,4.02,3.84,0,6.16-2.05,6.16-5.09,0-3.3-2.5-5-9.02-8.75-5.8-3.39-9.73-6.43-9.73-13.84,0-8.12,4.91-13.03,13.39-13.03,4.73,0,9.28,1.7,12.76,4.37l-3.48,7.23c-3.03-2.14-6.52-3.48-9.46-3.48-3.21,0-4.64,1.78-4.64,4.11,0,2.86,1.34,4.29,7.68,7.95,7.05,4.11,11.07,7.14,11.07,14.82,0,8.93-5.44,13.84-14.55,13.84Z"/><path d="M50.75,180.39h80.38s40.19,69.61,40.19,69.61l-40.19,69.61H50.75S10.56,250,10.56,250l40.19-69.61M50.75,171.25h-5.28l-2.64,4.57L2.64,245.43l-2.64,4.57,2.64,4.57,40.19,69.61,2.64,4.57h85.66s5.28,0,5.28,0l2.64-4.57,40.19-69.61,2.64-4.57-2.64-4.57-40.19-69.61-2.64-4.57H50.75Z"/><path d="M50.75,180.39h54.31c20.42,22.08,25.09,55.7,9.27,83.11-13.06,22.62-36.75,35.26-61.12,35.26-5.16,0-10.36-.57-15.49-1.73l-27.15-47.03,40.19-69.61M50.75,171.25h-5.28l-2.64,4.57L2.64,245.43l-2.64,4.57,2.64,4.57,27.15,47.03,2,3.46,3.9.88c5.73,1.3,11.62,1.96,17.51,1.96,13.74,0,27.33-3.57,39.3-10.33,12.34-6.97,22.62-17.17,29.74-29.5,4.37-7.57,7.45-15.72,9.15-24.23,1.64-8.22,1.97-16.63.97-24.98-.99-8.26-3.24-16.28-6.7-23.83-3.51-7.66-8.18-14.68-13.89-20.85l-2.71-2.94h-58.3Z"/><path d="M119.99,241.69c7.29,0,14.69,1.86,21.46,5.77,8.91,5.15,15.28,13,18.68,21.93l-29,50.22h-36.28c-17.75-12.73-23.29-37.1-12.13-56.41,7.96-13.79,22.42-21.51,37.28-21.51M119.99,232.55c-8.99,0-17.89,2.34-25.72,6.76-8.08,4.56-14.81,11.24-19.47,19.32-6.51,11.28-8.56,24.49-5.78,37.2,2.76,12.62,10.04,23.71,20.51,31.21l2.39,1.71h44.5l2.64-4.57,29-50.22,2.17-3.76-1.54-4.06c-4.25-11.17-12.29-20.61-22.65-26.59-7.92-4.57-16.92-6.99-26.03-6.99h0Z"/><path d="M123.77,229.22c-.07,5.83-.87,11.68-2.43,17.43h9.43c.22-.93.43-1.87.62-2.81.96-4.83,1.47-9.72,1.53-14.62h-9.14Z"/></svg>